<?xml version="1.0" encoding="UTF-8" standalone="no"?>
<!-- Created with Inkscape (http://www.inkscape.org/) -->

<svg
   width="104.09342mm"
   height="120.84342mm"
   viewBox="0 0 104.09342 120.84342"
   version="1.1"
   id="svg1"
   xmlns="http://www.w3.org/2000/svg"
   xmlns:svg="http://www.w3.org/2000/svg">
  <defs
     id="defs1" />
  <g
     id="layer1"
     transform="translate(-51.904886,-57.93286)">
    <path
       id="path10"
       style="fill:#ee7452;fill-rule:evenodd;stroke-width:2;stroke-linecap:round;stroke-linejoin:round"
       d="m 101.21971,57.932862 -1.64693,8.296134 c -0.28334,1.425524 -0.68537,2.633252 -1.20665,3.623035 -0.51578,0.9897 -1.15611,1.762014 -1.920808,2.316138 l 0.340031,0.645955 c 0.613557,-0.401979 1.157777,-0.867715 1.631937,-1.396814 0.47426,-0.523932 0.87582,-1.113781 1.2051,-1.769918 0.24966,-0.494727 0.48406,-1.077186 0.70332,-1.74718 0.21916,-0.67516 0.4204,-1.440472 0.60358,-2.295984 l 3.75067,4.137732 4.19096,-6.861596 -0.18293,8.670271 4.0845,-0.495577 -1.58595,-12.961482 -1.84536,-0.03462 -3.70469,7.358724 z m -23.984068,1.328601 -0.503846,0.218591 0.01499,0.192753 c 0.04013,0.51002 0.166686,0.930332 0.379305,1.260905 0.21777,0.330168 0.52736,0.578259 0.929142,0.743624 0.289137,0.117209 0.647565,0.190008 1.07487,0.218592 0.432456,0.02818 0.929105,0.01521 1.489831,-0.03927 l 0.525033,-0.04909 -0.0093,10.95592 3.528984,0.181384 -1.634009,-11.37915 c 0.414739,-0.13112 0.826466,-0.238517 1.23455,-0.322461 0.413235,-0.08435 0.822913,-0.142645 1.229899,-0.174666 0.319406,-0.02513 0.648176,-0.03557 0.985469,-0.03101 0.337294,0.0046 0.678316,0.02436 1.023194,0.05943 l 0.07338,-1.241785 c -0.223262,-0.07056 -0.483535,-0.117815 -0.780831,-0.141076 -0.297701,-0.02841 -0.624316,-0.02848 -0.979785,-5.17e-4 -0.674875,0.0531 -1.671511,0.232571 -2.989998,0.538468 -1.313335,0.305493 -2.307889,0.484854 -2.982764,0.537952 -0.798516,0.06283 -1.417152,-0.03112 -1.856734,-0.281637 -0.434836,-0.256069 -0.685371,-0.671581 -0.751375,-1.246952 z m 48.274058,2.316654 -10.71098,8.696627 2.05259,3.064413 2.93574,-2.921786 5.39244,2.262911 -0.27699,2.966744 1.47226,0.249081 1.3162,-13.638961 z m -23.81612,0.518315 3.04529,4.776453 -0.47232,0.821138 -2.95796,-3.5295 z m -31.388265,0.711585 c -0.222402,-0.0015 -0.457495,0.01191 -0.705383,0.04031 -0.497725,0.05201 -1.044931,0.160666 -1.64176,0.325562 -0.490304,0.166158 -0.98156,0.33007 -1.473812,0.491443 -0.494201,0.156586 -0.985947,0.312 -1.475362,0.466638 l 0.45992,1.335836 1.179256,-0.413412 0.125574,0.719336 -1.080554,0.347782 0.309025,0.861447 1.119828,-0.455787 0.205155,0.811837 -1.080037,0.347783 0.296106,0.891935 1.11156,-0.435633 0.09353,0.681613 -0.982885,0.341581 2.649967,7.658964 7.078638,-2.430343 -0.968417,-2.27583 -1.465543,0.697115 -0.379305,1.76165 -2.706812,1.0604 -1.30948,-5.066357 3.183785,-0.567924 0.07958,-2.434477 -3.589445,1.687752 -1.37666,-4.963521 c 0.627324,-0.19963 1.153007,-0.341044 1.576648,-0.424264 0.426479,-0.08995 0.745917,-0.127734 0.958081,-0.113688 0.391713,0.03021 0.744318,0.176326 1.057817,0.43925 0.316336,0.256189 0.596952,0.630158 0.841809,1.121895 l 1.013891,-0.797884 c -0.309024,-0.47119 -0.670338,-0.845272 -1.084688,-1.122929 -0.409564,-0.279605 -0.873403,-0.459131 -1.39113,-0.538468 -0.196916,-0.03141 -0.406499,-0.0481 -0.628902,-0.04961 z m 55.987285,0.629935 -0.75965,5.361947 -3.70571,-0.637171 z m -44.026258,1.158069 c 0.185462,-0.01459 0.325255,0.02113 0.42013,0.10697 0.100027,0.08543 0.15749,0.220715 0.172082,0.406177 0.015,0.190614 -0.0205,0.336122 -0.105936,0.436149 -0.08069,0.09447 -0.213481,0.148706 -0.398943,0.163298 -0.185461,0.01459 -0.330859,-0.01779 -0.435632,-0.09767 -0.100027,-0.08544 -0.157085,-0.223314 -0.172082,-0.413928 -0.01459,-0.185462 0.0205,-0.328371 0.105936,-0.428398 0.09059,-0.100432 0.228983,-0.158007 0.414445,-0.172598 z m 28.656128,0.307992 0.005,0.302307 c 0.0103,0.609704 -0.0255,1.264247 -0.10697,1.963187 -0.0816,0.693774 -0.21732,1.432113 -0.40721,2.215369 l -0.82527,-0.111621 c 0.26324,-0.665484 0.4686,-1.34801 0.61598,-2.047937 0.15278,-0.705176 0.24496,-1.425189 0.27647,-2.159558 z m -40.182039,0.149861 -1.19631,0.86403 -0.08371,1.397848 1.839164,-0.271818 z m 11.671639,1.692403 c 0.195765,-0.0154 0.366303,0.04354 0.511597,0.177251 0.15004,0.128152 0.232532,0.287393 0.24753,0.478007 0.01581,0.200917 -0.04031,0.376542 -0.168466,0.526582 -0.123,0.149635 -0.282758,0.232128 -0.478523,0.247531 -0.195766,0.0154 -0.368275,-0.04083 -0.518315,-0.168982 -0.15004,-0.128153 -0.233272,-0.292593 -0.24908,-0.49351 -0.015,-0.190614 0.04186,-0.36104 0.170015,-0.51108 0.127747,-0.155192 0.289477,-0.240396 0.485242,-0.255799 z m 37.51761,1.03818 0.12299,0.437699 c -0.59054,0.469969 -1.13706,0.974384 -1.6397,1.513603 -0.49543,0.536508 -0.94149,1.109957 -1.33893,1.719792 l -0.56948,-0.559139 c 0.51998,-0.616566 1.06467,-1.183713 1.63504,-1.701188 0.57038,-0.517476 1.16713,-0.987632 1.79008,-1.410767 z m 0.99839,1.348238 4.50256,0.697115 -0.12609,1.416451 -4.88135,-1.634525 z m -61.908888,0.03772 c -0.141719,-0.0043 -0.285556,7.51e-4 -0.431498,0.01447 -0.502452,0.04686 -1.017583,0.198806 -1.544608,0.456303 -0.523086,0.254153 -1.060189,0.615525 -1.611788,1.083655 -0.20094,0.170533 -0.595501,0.532054 -1.183391,1.085205 -0.583949,0.549807 -1.364827,1.290775 -2.343009,2.222603 l 0.901237,1.085722 0.958081,-1.02681 0.896586,1.008207 -0.978235,0.931726 0.957048,1.00769 0.933276,-0.924491 0.922425,1.026811 -0.917774,1.003039 0.974101,0.931726 0.851111,-0.925525 4.532023,5.100464 0.905371,-1.317232 -4.545459,-6.146395 c 0.547864,0.294153 1.078913,0.412945 1.593184,0.356051 0.518212,-0.06024 1.019682,-0.296165 1.504301,-0.707451 0.744659,-0.631976 1.13634,-1.411887 1.175639,-2.339909 0.0393,-0.928021 -0.258683,-1.766492 -0.894002,-2.515092 -0.44138,-0.520079 -0.919873,-0.896745 -1.436088,-1.129646 -0.387161,-0.174676 -0.793372,-0.268317 -1.218531,-0.281121 z m 80.983168,0.133842 -8.81031,7.016626 -1.1622,-1.034562 -2.61225,1.061434 2.31459,2.248958 5.93814,-4.853451 -0.40463,12.096936 6.41305,-5.215702 c 0.13861,-0.110265 0.27154,-0.218694 0.39842,-0.325561 0.13086,-0.110436 0.25776,-0.221157 0.38086,-0.331763 1.14359,-1.027563 2.01708,-2.055609 2.62103,-3.08405 0.60773,-1.024701 0.94991,-2.049856 1.02577,-3.075264 l -0.6196,-0.150379 c -0.0814,0.62323 -0.30616,1.235816 -0.67437,1.838131 -0.36822,0.602316 -0.87619,1.194547 -1.52343,1.776119 -0.30972,0.278299 -0.66439,0.578958 -1.06453,0.902787 -0.40015,0.32383 -0.84768,0.668939 -1.34204,1.034563 -0.4153,0.308877 -0.82838,0.615565 -1.23972,0.920874 -0.41133,0.305309 -0.82303,0.61446 -1.23455,0.927075 z m -57.402178,0.03204 c 0.185462,-0.01459 0.325771,0.02061 0.420646,0.106454 0.100027,0.08544 0.156863,0.218632 0.171049,0.398942 0.01459,0.185462 -0.0205,0.327854 -0.105936,0.427881 -0.08069,0.09447 -0.213997,0.149222 -0.399459,0.163814 -0.185462,0.01459 -0.330343,-0.01831 -0.435116,-0.09819 -0.100027,-0.08543 -0.15749,-0.220715 -0.172082,-0.406177 -0.01419,-0.18031 0.02154,-0.320619 0.10697,-0.420646 0.09059,-0.100432 0.228466,-0.157491 0.413928,-0.172083 z m -24.008354,1.338937 c 0.730401,-0.0099 1.39827,0.342093 2.003496,1.055232 0.190596,0.22458 0.340382,0.456726 0.449068,0.696599 0.105342,0.235932 0.168014,0.477217 0.188102,0.724503 0.02164,0.273077 -0.01751,0.526871 -0.117305,0.760677 -0.0998,0.233807 -0.259951,0.444234 -0.480591,0.631486 -0.31914,0.270847 -0.666384,0.392932 -1.041797,0.365869 -0.375413,-0.02706 -0.698603,-0.200208 -0.96945,-0.519348 -0.117033,-0.1379 -0.21018,-0.275745 -0.279569,-0.413411 -0.06879,-0.14495 -0.111981,-0.291706 -0.129192,-0.439767 -0.01877,-0.173851 -0.0043,-0.328126 0.04341,-0.463537 0.04834,-0.142695 0.137664,-0.269477 0.267684,-0.379822 0.130019,-0.110345 0.2539,-0.16452 0.371036,-0.162264 0.117137,0.0023 0.223941,0.06092 0.320911,0.175183 0.117033,0.1379 0.164582,0.273355 0.142627,0.40721 -0.02136,0.126572 -0.115635,0.247604 -0.28267,0.362252 l -0.140043,0.09819 c 0.161565,0.08655 0.318255,0.119774 0.470255,0.09922 0.148657,-0.0245 0.296054,-0.09849 0.441834,-0.222208 0.22064,-0.187253 0.336787,-0.421997 0.348816,-0.703317 0.0087,-0.28526 -0.08226,-0.540231 -0.272852,-0.764811 -0.270847,-0.31914 -0.605537,-0.481859 -1.00459,-0.488859 -0.398456,-0.01428 -0.759025,0.11545 -1.082104,0.38964 -0.37036,0.314316 -0.605408,0.672861 -0.70435,1.075387 -0.09835,0.395242 -0.06633,0.832115 0.09612,1.311031 l -1.4981,-2.052588 c 0.08728,-0.08085 0.170718,-0.158384 0.250114,-0.232544 0.07605,-0.0781 0.153228,-0.150682 0.232027,-0.217558 0.85498,-0.725602 1.647312,-1.08985 2.377116,-1.092439 z m 78.827742,3.446818 c 0.1397,0.0031 0.27612,0.06967 0.40877,0.200504 0.13643,0.134577 0.20083,0.266002 0.19378,0.393775 -0.003,0.13151 -0.0762,0.261194 -0.21911,0.38964 -0.14294,0.128445 -0.28457,0.191168 -0.42426,0.188102 -0.13193,-0.0029 -0.26612,-0.07161 -0.40256,-0.206189 -0.13265,-0.130838 -0.19927,-0.260147 -0.19999,-0.38809 0.003,-0.131511 0.0767,-0.261712 0.21963,-0.390157 0.14295,-0.128445 0.28405,-0.190651 0.42374,-0.187585 z M 79.121831,75.61395 c -12.485075,0 -15.200568,16.187626 -12.082466,46.96665 2.787948,27.52004 -11.03976,62.72661 12.082466,55.15167 17.284988,-5.66266 23.334149,-27.53011 25.114229,-42.91315 12.77796,-2.42533 29.04804,-12.91605 32.57114,-26.07489 3.7857,-14.139661 -9.22455,-32.35048 -31.18104,-32.350482 -6.21373,-10e-7 -12.093671,0.951256 -17.332279,2.645833 -2.921848,-2.228435 -6.035328,-3.425631 -9.17205,-3.425631 z m 57.928249,1.44384 c 0.2173,0.0048 0.40186,0.08198 0.55345,0.23151 0.14023,0.138315 0.20575,0.307662 0.19689,0.508496 -0.009,0.200834 -0.0889,0.369298 -0.23978,0.504879 -0.15089,0.135581 -0.331,0.200969 -0.54053,0.19637 -0.20557,-0.0082 -0.37861,-0.08131 -0.51884,-0.219624 -0.15159,-0.14953 -0.22863,-0.322945 -0.23151,-0.520382 9.2e-4,-0.193698 0.0787,-0.360045 0.23358,-0.499194 0.15486,-0.13915 0.3372,-0.206653 0.54674,-0.202055 z m -0.26769,3.28352 c 0.1397,0.0031 0.2775,0.07213 0.41393,0.206706 0.14023,0.138315 0.20704,0.271169 0.19999,0.398942 -0.007,0.127773 -0.0801,0.254428 -0.21911,0.379305 -0.14295,0.128445 -0.28216,0.193114 -0.41806,0.193787 -0.1359,6.72e-4 -0.27422,-0.06839 -0.41444,-0.206706 -0.13644,-0.134576 -0.20325,-0.267431 -0.19999,-0.398942 0.003,-0.131511 0.0767,-0.261712 0.21962,-0.390157 0.13898,-0.124878 0.27837,-0.186 0.41806,-0.182935 z m 1.84899,6.262667 -0.93018,3.515548 4.27209,-0.02636 1.99575,5.231205 -2.46704,1.864486 0.82786,1.173055 11.37036,-8.542631 -0.98857,-1.952336 z m -34.66507,0.840259 c 0.4489,0.0049 0.95427,0.095 1.46038,0.3545 0.50612,0.259487 1.01317,0.688337 1.46502,1.370459 0,0 0.24798,0.268146 0.57464,0.75706 0.10889,0.162971 0.2266,0.350447 0.34675,0.560689 0.42051,0.735852 0.87132,1.750567 1.08469,2.968294 0.0305,0.173967 0.0565,0.3523 0.0765,0.534335 0,0 0.0404,0.209377 0.0801,0.550354 0.0199,0.170499 0.0397,0.374162 0.0537,0.60048 0.042,0.678959 0.034,1.56479 -0.16536,2.393136 -0.0997,0.414176 -0.24731,0.813592 -0.46044,1.16582 -0.071,0.117419 -0.14882,0.229757 -0.23512,0.33538 0,0 -0.0208,0.03374 -0.0631,0.0894 -0.0423,0.05565 -0.1063,0.133302 -0.1943,0.221692 -0.17596,0.176792 -0.44675,0.396172 -0.82631,0.566374 -0.56933,0.255301 -1.38306,0.399851 -2.48822,0.124541 -0.36838,-0.0918 -0.7692,-0.229807 -1.20406,-0.426332 0,0 -0.21361,-0.142287 -0.53847,-0.407727 -0.16243,-0.132716 -0.35277,-0.296161 -0.5581,-0.488342 -0.41067,-0.384354 -0.88152,-0.882819 -1.31052,-1.477429 -0.32176,-0.445963 -0.62014,-0.946289 -0.85163,-1.492416 -0.23149,-0.546124 -0.39613,-1.138105 -0.45113,-1.768884 0,0 -0.08552,-0.448288 -0.09612,-1.113627 -0.005,-0.332665 0.008,-0.719603 0.06046,-1.132231 0.0523,-0.412624 0.14335,-0.850723 0.29352,-1.285709 0.0451,-0.130499 0.0957,-0.260492 0.15193,-0.389641 0.28098,-0.645737 0.7081,-1.264879 1.34927,-1.760099 0.25647,-0.198094 0.54714,-0.376431 0.87644,-0.52865 0,0 0.0418,-0.02083 0.11885,-0.05168 0.077,-0.03089 0.18907,-0.07182 0.32918,-0.112655 0.28019,-0.08157 0.67248,-0.161996 1.12138,-0.157096 z m 36.6019,0.677995 c 0.40603,-0.01089 0.80676,-0.0086 1.20251,0.0062 0.7915,0.02964 1.56526,0.109652 2.32079,0.240295 l -0.25063,0.38654 c -0.76902,-0.07621 -1.53416,-0.09863 -2.29547,-0.06718 -0.75424,0.03447 -1.50266,0.127758 -2.24534,0.279569 l 0.0346,-0.774113 c 0.41631,-0.03659 0.82749,-0.06043 1.23352,-0.07131 z m -26.1922,0.952913 c 0.8408,0.03768 1.66009,0.401837 2.25516,1.013892 0.87233,0.864587 1.4299,2.026279 1.83968,3.207556 0.54718,1.774698 0.54896,3.761739 -0.0134,5.578987 -0.4847,1.299781 -1.75545,2.098841 -3.0117,2.287711 -0.46204,0.14115 -0.91233,0.0196 -1.3255,-0.18345 -1.42521,-0.59932 -2.58005,-1.859597 -3.00343,-3.431828 -0.44588,-1.437389 -0.81403,-2.983822 -0.54674,-4.527889 0.0616,-0.456769 0.16435,-0.923491 0.32195,-1.368392 0.2627,-0.741481 0.67738,-1.421327 1.30534,-1.888774 0.21248,-0.159006 0.44436,-0.288583 0.68626,-0.386023 0.47612,-0.229255 0.98794,-0.3244 1.49242,-0.30179 z m 37.45094,0.610815 -4.63744,3.193604 -2.07584,-2.959509 z m -8.79584,0.282154 0.71727,0.01188 2.58072,3.542937 -1.17409,0.894519 z m -47.788816,4.963521 c 0.610991,0.02233 1.321722,0.17944 2.116146,0.573609 0,0 0.11703,0.0545 0.31781,0.175183 0.10038,0.06035 0.22154,0.137167 0.35967,0.232027 0.27624,0.189727 0.61951,0.45152 0.99684,0.79685 0.566,0.517991 1.20836,1.223864 1.81488,2.157491 0,0 0.11441,0.145563 0.27647,0.397392 0.081,0.125911 0.17398,0.278431 0.27078,0.452686 0.29028,0.522788 0.6139,1.241508 0.74828,2.024168 0.0672,0.39132 0.0869,0.79861 0.0315,1.20561 -0.0184,0.13566 -0.0449,0.2712 -0.0811,0.40618 0,0 -0.007,0.0522 -0.0274,0.14314 -0.02,0.0909 -0.053,0.22036 -0.10491,0.37465 -0.0778,0.23145 -0.19806,0.51898 -0.38085,0.81546 -0.18279,0.29647 -0.42781,0.60229 -0.75551,0.87074 -0.65541,0.53691 -1.64079,0.92463 -3.11557,0.79117 0,0 -0.17183,-0.0164 -0.46302,-0.0718 -0.29118,-0.0554 -0.701841,-0.1501 -1.178226,-0.30696 -0.714565,-0.23534 -1.577568,-0.61095 -2.410706,-1.20406 -0.277711,-0.1977 -0.5521,-0.41921 -0.816487,-0.66817 0,0 -0.137995,-0.12788 -0.340548,-0.36122 -0.101277,-0.11667 -0.21874,-0.25949 -0.343132,-0.42633 -0.310992,-0.4171 -0.665538,-0.98255 -0.920357,-1.65365 -0.203853,-0.53689 -0.343949,-1.14168 -0.346749,-1.792136 -7.1e-4,-0.162606 0.0072,-0.32808 0.02481,-0.496094 0,0 0.05236,-0.428846 0.243396,-1.030945 0.18424,-0.580603 0.497597,-1.322019 1.018542,-1.995744 0.17365,-0.224576 0.370107,-0.441887 0.592729,-0.642854 0,0 0.02791,-0.02478 0.08165,-0.06563 0.05375,-0.04086 0.133491,-0.09748 0.238228,-0.161231 0.314256,-0.191381 0.851782,-0.445898 1.575615,-0.520898 0.180956,-0.01875 0.373563,-0.02605 0.577225,-0.0186 z m 54.255086,5.333526 c -0.933,-0.0156 -1.8135,0.10162 -2.6417,0.3514 -0.8283,0.25494 -1.60957,0.64262 -2.34404,1.16272 -0.79003,0.55535 -1.38699,1.18638 -1.79007,1.89291 -0.40309,0.70652 -0.61244,1.48324 -0.62839,2.3306 -0.0147,0.78019 0.15898,1.47337 0.5209,2.07895 0.36192,0.60557 0.90924,1.12355 1.64228,1.55442 0.59729,0.35108 1.27051,0.62311 2.019,0.81649 0.75387,0.19864 1.58314,0.31873 2.48822,0.35967 l 1.3596,-5.30355 -1.32343,-0.10749 -0.786,2.81688 -0.29972,-3.32331 -1.20613,0.19689 0.27027,3.56309 c -0.48248,-0.0339 -0.93635,-0.1138 -1.36219,-0.23978 -0.42036,-0.12589 -0.81276,-0.29259 -1.17668,-0.50023 -0.45076,-0.26077 -0.78805,-0.55845 -1.01234,-0.89297 -0.21889,-0.32926 -0.32446,-0.69821 -0.31677,-1.10639 0.01,-0.51668 0.12276,-0.97713 0.33899,-1.38183 0.21624,-0.4047 0.53534,-0.75321 0.95808,-1.04593 0.37826,-0.26245 0.80499,-0.45696 1.27951,-0.58343 0.47991,-0.1212 1.00257,-0.17738 1.56787,-0.16794 0.77933,0.013 1.53725,0.12926 2.27428,0.34829 0.74241,0.2243 1.46358,0.55153 2.16369,0.98186 0.79783,0.4888 1.39163,1.02848 1.78128,1.61902 0.39505,0.59579 0.58603,1.23724 0.5731,1.92443 -0.006,0.33068 -0.0582,0.61654 -0.15607,0.85783 -0.0979,0.24128 -0.24446,0.44558 -0.43976,0.61288 l 0.13022,0.52968 c 0.38768,-0.17959 0.73776,-0.39894 1.05007,-0.65732 0.3123,-0.25838 0.58689,-0.55322 0.82372,-0.88522 0.24241,-0.33707 0.42438,-0.69341 0.54674,-1.06867 0.12235,-0.37525 0.18775,-0.76435 0.19533,-1.16737 0.0156,-0.82669 -0.14056,-1.57883 -0.46819,-2.25619 -0.32214,-0.67727 -0.81345,-1.27979 -1.47329,-1.80764 -0.61652,-0.49612 -1.3067,-0.86675 -2.07068,-1.11208 -0.76398,-0.24532 -1.59311,-0.37575 -2.4877,-0.39067 z m 1.10071,1.03404 c 0.19758,0.003 0.34479,0.0521 0.44183,0.14676 0.097,0.0947 0.14355,0.23516 0.14005,0.42117 -0.004,0.186 -0.0551,0.32205 -0.15555,0.40824 -0.10054,0.0914 -0.24994,0.13559 -0.44752,0.13229 -0.15367,-0.003 -0.28954,-0.059 -0.40824,-0.1695 -0.1187,-0.11051 -0.17697,-0.24083 -0.17415,-0.39067 0.003,-0.14984 0.0657,-0.28057 0.18862,-0.39222 0.12278,-0.10649 0.26129,-0.15863 0.41496,-0.15607 z m -42.39225,0.46044 c 0.4749,-0.0309 0.95376,0.0275 1.42886,0.20723 0.6133,0.16325 1.22086,0.35792 1.83503,0.524 0.61417,0.16608 1.23452,0.30348 1.87379,0.35243 1.73011,-0.48673 3.5583,-0.84327 5.31543,-0.55707 2.45646,0.66861 4.07002,3.36967 3.98632,6.00635 -0.34679,2.64055 -1.86321,5.18815 -4.16873,6.43733 -1.41901,0.86569 -3.22568,1.24623 -4.16151,2.81275 -0.67488,1.05525 -1.25724,2.21424 -2.08101,3.14968 -0.27459,0.31181 -0.57598,0.59908 -0.91674,0.84904 -0.15246,0.13053 -0.30995,0.25073 -0.4718,0.36174 -1.13293,0.7771 -2.47737,1.10477 -3.7729,1.38338 -1.78148,0.30327 -3.62564,-0.40792 -4.6948,-1.89395 -1.71933,-2.12625 -1.5816,-5.31871 -0.57413,-7.8636 0.45012,-1.06128 0.91162,-2.1894 0.59738,-3.3445 -0.13903,-0.75037 -0.35102,-1.55241 -0.39222,-2.34352 -0.0247,-0.47468 0.0121,-0.9455 0.16278,-1.39837 0.0744,-0.22364 0.17684,-0.44293 0.31316,-0.65629 0.11212,-0.20617 0.23431,-0.40536 0.36483,-0.59893 0.39157,-0.58072 0.85897,-1.10596 1.36168,-1.58181 0.5885,-0.42702 1.23076,-0.86559 1.90427,-1.20872 0.2245,-0.11436 0.45264,-0.21818 0.68317,-0.30747 0.46104,-0.17858 0.93224,-0.29877 1.40714,-0.3297 z m 44.34045,0.15348 c 0.20307,0.003 0.37731,0.0735 0.52297,0.21033 0.15104,0.14206 0.22487,0.31112 0.22117,0.50746 -0.004,0.19634 -0.084,0.36329 -0.24029,0.50023 -0.15081,0.13703 -0.32766,0.20389 -0.53072,0.2005 -0.20856,-0.003 -0.38846,-0.0765 -0.5395,-0.21859 -0.14556,-0.14198 -0.21609,-0.31112 -0.21239,-0.50746 0.004,-0.19634 0.0807,-0.36268 0.23151,-0.49971 0.1562,-0.13178 0.3387,-0.19624 0.54725,-0.19276 z m 1.20199,1.757 c 0.19209,0.003 0.33705,0.0521 0.43409,0.14676 0.097,0.0947 0.14344,0.23206 0.14004,0.4129 -0.004,0.186 -0.0555,0.32464 -0.15606,0.41599 -0.10054,0.0914 -0.24665,0.1355 -0.43874,0.13229 -0.19757,-0.003 -0.34479,-0.0521 -0.44183,-0.14676 -0.097,-0.0947 -0.14406,-0.23515 -0.14056,-0.42116 0.003,-0.14984 0.0658,-0.27798 0.18862,-0.38447 0.12278,-0.10649 0.26077,-0.15811 0.41444,-0.15555 z m -60.46969,2.96778 c 0.25384,-0.005 0.506394,0.005 0.75706,0.0305 1.503985,0.14965 2.94036,0.81649 4.18786,1.65364 0.20165,0.13088 0.4018,0.26883 0.59479,0.41652 0.28948,0.22153 0.56316,0.46467 0.80512,0.73845 0.24196,0.27378 0.45208,0.57809 0.61288,0.92139 0.55279,1.03877 0.53142,2.36698 0,3.45509 -0.53011,1.61052 -1.99929,2.80221 -3.578071,3.01584 -0.231444,0.0359 -0.464774,0.0598 -0.698149,0.0703 -0.700119,0.0315 -1.399939,-0.0608 -2.043286,-0.33538 -1.186424,-0.43936 -2.359385,-1.06993 -3.301091,-1.95389 -0.565023,-0.53037 -1.046581,-1.15194 -1.397847,-1.87792 -0.40021,-0.94384 -0.504219,-2.09137 -0.195337,-3.10627 0.01752,-0.0577 0.03658,-0.11483 0.05684,-0.17157 0.141661,-0.39724 0.34936,-0.77055 0.630969,-1.09864 0.367242,-0.43004 0.80686,-0.78649 1.285193,-1.06867 0.47833,-0.28217 0.995728,-0.48997 1.518254,-0.62321 0.255913,-0.039 0.510971,-0.0607 0.764811,-0.0661 z m 47.99604,6.09834 -3.13521,6.87761 2.48202,0.81029 0.49609,-1.55391 -1.11569,-1.464 1.09554,-2.71766 4.92166,2.43086 -1.82314,2.74092 1.85931,1.69395 1.23197,-3.79357 4.88859,2.31252 c -0.29026,0.59893 -0.5535,1.08332 -0.79013,1.45315 -0.23335,0.37645 -0.43139,0.63871 -0.59376,0.78651 -0.30316,0.27 -0.67016,0.43255 -1.10071,0.48834 -0.42728,0.0624 -0.92192,0.0195 -1.48363,-0.12919 l -0.0951,1.28726 c 0.59131,0.0874 1.14422,0.071 1.6583,-0.0496 0.5122,-0.11578 0.98424,-0.33932 1.41593,-0.66972 0.33034,-0.24968 0.64972,-0.57735 0.9586,-0.98289 0.31404,-0.40377 0.61882,-0.88204 0.91467,-1.43505 0.21889,-0.47492 0.44052,-0.94899 0.66456,-1.42214 0.2292,-0.47137 0.45739,-0.94011 0.68472,-1.40663 l -1.37977,-0.55604 -0.51573,1.15135 -0.65525,-0.38964 0.49661,-1.03404 -0.89866,-0.34985 -0.43976,1.13636 -0.78548,-0.39326 0.49661,-1.03404 -0.91364,-0.37931 -0.44959,1.11621 -0.60306,-0.3886 0.43201,-0.95757 z m 7.45329,6.41821 -1.09761,1.54564 1.96526,0.92191 0.17363,-1.4671 z m -12.07368,3.0856 -0.73846,1.28571 3.92999,3.21014 -0.39584,0.90847 -4.56974,-0.0357 c -0.77511,-0.004 -1.4251,0.0757 -1.95079,0.24081 -0.52906,0.16916 -0.93372,0.4231 -1.21336,0.76172 -0.25269,0.30597 -0.38012,0.65421 -0.38293,1.04489 0.002,0.39386 0.13396,0.83124 0.3974,1.31207 l 0.28577,-0.14418 c -0.0684,-0.27918 -0.0882,-0.5291 -0.0589,-0.74983 0.0293,-0.22072 0.11173,-0.41248 0.24649,-0.57567 0.0943,-0.11423 0.21976,-0.21597 0.37621,-0.30437 0.15307,-0.0843 0.33723,-0.15544 0.55242,-0.21395 0.18871,-0.0517 0.37351,-0.0867 0.555,-0.10438 0.17813,-0.0136 0.3525,-0.0136 0.52245,-5.2e-4 l 4.91391,0.46457 -0.0754,0.44545 -1.08418,0.27699 0.21188,0.75396 1.04903,-0.18449 c 0.0602,0.247 0.13946,0.47482 0.23771,0.6842 0.10259,0.21255 0.22177,0.40136 0.35709,0.56586 l -0.90899,0.53226 0.36483,0.66973 1.05937,-0.63872 c 0.21909,0.20618 0.43887,0.37362 0.65939,0.50229 0.22052,0.12868 0.43791,0.21922 0.65216,0.27131 l -0.0961,1.17667 0.81494,-0.0517 0.0465,-0.92811 c 0.24793,0.0113 0.49691,-0.0123 0.74724,-0.0713 0.25129,-0.0517 0.50085,-0.14768 0.74827,-0.28732 l 0.47697,0.93844 0.7059,-0.33744 -0.52348,-0.98237 0.92346,-0.68885 0.7922,0.70745 0.55604,-0.58446 -0.69712,-0.6966 1.04748,-1.07952 0.85732,0.57878 0.50281,-0.63407 z m 3.89692,5.08134 4.59507,3.84421 c -0.18532,0.16546 -0.36408,0.30614 -0.53641,0.4222 -0.17136,0.12331 -0.33558,0.2258 -0.49299,0.30696 l -4.06642,-1.80765 c -0.0603,-0.42376 -0.0486,-0.86738 0.0346,-1.33015 0.0832,-0.46276 0.2385,-0.94105 0.46612,-1.43557 z" />
  </g>
</svg>
